<svg width="648" height="833" viewBox="0 0 648 833" fill="none" xmlns="http://www.w3.org/2000/svg">
<path d="M332 101C332 103.209 330.209 105 328 105C325.791 105 324 103.209 324 101C324 98.7909 325.791 97 328 97C330.209 97 332 98.7909 332 101Z" fill="#DBDBDB"/>
<path d="M363 101C363 103.209 361.209 105 359 105C356.791 105 355 103.209 355 101C355 98.7909 356.791 97 359 97C361.209 97 363 98.7909 363 101Z" fill="#DBDBDB"/>
<path d="M394 101C394 103.209 392.209 105 390 105C387.791 105 386 103.209 386 101C386 98.7909 387.791 97 390 97C392.209 97 394 98.7909 394 101Z" fill="#DBDBDB"/>
<path d="M425 101C425 103.209 423.209 105 421 105C418.791 105 417 103.209 417 101C417 98.7909 418.791 97 421 97C423.209 97 425 98.7909 425 101Z" fill="#DBDBDB"/>
<path d="M456 101C456 103.209 454.209 105 452 105C449.791 105 448 103.209 448 101C448 98.7909 449.791 97 452 97C454.209 97 456 98.7909 456 101Z" fill="#DBDBDB"/>
<path d="M487 101C487 103.209 485.209 105 483 105C480.791 105 479 103.209 479 101C479 98.7909 480.791 97 483 97C485.209 97 487 98.7909 487 101Z" fill="#DBDBDB"/>
<path d="M518 101C518 103.209 516.209 105 514 105C511.791 105 510 103.209 510 101C510 98.7909 511.791 97 514 97C516.209 97 518 98.7909 518 101Z" fill="#DBDBDB"/>
<path d="M549 101C549 103.209 547.209 105 545 105C542.791 105 541 103.209 541 101C541 98.7909 542.791 97 545 97C547.209 97 549 98.7909 549 101Z" fill="#DBDBDB"/>
<path d="M580 101C580 103.209 578.209 105 576 105C573.791 105 572 103.209 572 101C572 98.7909 573.791 97 576 97C578.209 97 580 98.7909 580 101Z" fill="#DBDBDB"/>
<path d="M611 101C611 103.209 609.209 105 607 105C604.791 105 603 103.209 603 101C603 98.7909 604.791 97 607 97C609.209 97 611 98.7909 611 101Z" fill="#DBDBDB"/>
<path d="M642 101C642 103.209 640.209 105 638 105C635.791 105 634 103.209 634 101C634 98.7909 635.791 97 638 97C640.209 97 642 98.7909 642 101Z" fill="#DBDBDB"/>
<path d="M332 131C332 133.209 330.209 135 328 135C325.791 135 324 133.209 324 131C324 128.791 325.791 127 328 127C330.209 127 332 128.791 332 131Z" fill="#DBDBDB"/>
<path d="M363 131C363 133.209 361.209 135 359 135C356.791 135 355 133.209 355 131C355 128.791 356.791 127 359 127C361.209 127 363 128.791 363 131Z" fill="#DBDBDB"/>
<path d="M394 131C394 133.209 392.209 135 390 135C387.791 135 386 133.209 386 131C386 128.791 387.791 127 390 127C392.209 127 394 128.791 394 131Z" fill="#DBDBDB"/>
<path d="M425 131C425 133.209 423.209 135 421 135C418.791 135 417 133.209 417 131C417 128.791 418.791 127 421 127C423.209 127 425 128.791 425 131Z" fill="#DBDBDB"/>
<path d="M456 131C456 133.209 454.209 135 452 135C449.791 135 448 133.209 448 131C448 128.791 449.791 127 452 127C454.209 127 456 128.791 456 131Z" fill="#DBDBDB"/>
<path d="M487 131C487 133.209 485.209 135 483 135C480.791 135 479 133.209 479 131C479 128.791 480.791 127 483 127C485.209 127 487 128.791 487 131Z" fill="#DBDBDB"/>
<path d="M518 131C518 133.209 516.209 135 514 135C511.791 135 510 133.209 510 131C510 128.791 511.791 127 514 127C516.209 127 518 128.791 518 131Z" fill="#DBDBDB"/>
<path d="M549 131C549 133.209 547.209 135 545 135C542.791 135 541 133.209 541 131C541 128.791 542.791 127 545 127C547.209 127 549 128.791 549 131Z" fill="#DBDBDB"/>
<path d="M580 131C580 133.209 578.209 135 576 135C573.791 135 572 133.209 572 131C572 128.791 573.791 127 576 127C578.209 127 580 128.791 580 131Z" fill="#DBDBDB"/>
<path d="M611 131C611 133.209 609.209 135 607 135C604.791 135 603 133.209 603 131C603 128.791 604.791 127 607 127C609.209 127 611 128.791 611 131Z" fill="#DBDBDB"/>
<path d="M642 131C642 133.209 640.209 135 638 135C635.791 135 634 133.209 634 131C634 128.791 635.791 127 638 127C640.209 127 642 128.791 642 131Z" fill="#DBDBDB"/>
<path d="M328 165C330.209 165 332 163.209 332 161C332 158.791 330.209 157 328 157C325.791 157 324 158.791 324 161C324 163.209 325.791 165 328 165Z" fill="#DBDBDB"/>
<path d="M359 165C361.209 165 363 163.209 363 161C363 158.791 361.209 157 359 157C356.791 157 355 158.791 355 161C355 163.209 356.791 165 359 165Z" fill="#DBDBDB"/>
<path d="M390 165C392.209 165 394 163.209 394 161C394 158.791 392.209 157 390 157C387.791 157 386 158.791 386 161C386 163.209 387.791 165 390 165Z" fill="#DBDBDB"/>
<path d="M421 165C423.209 165 425 163.209 425 161C425 158.791 423.209 157 421 157C418.791 157 417 158.791 417 161C417 163.209 418.791 165 421 165Z" fill="#DBDBDB"/>
<path d="M452 165C454.209 165 456 163.209 456 161C456 158.791 454.209 157 452 157C449.791 157 448 158.791 448 161C448 163.209 449.791 165 452 165Z" fill="#DBDBDB"/>
<path d="M483 165C485.209 165 487 163.209 487 161C487 158.791 485.209 157 483 157C480.791 157 479 158.791 479 161C479 163.209 480.791 165 483 165Z" fill="#DBDBDB"/>
<path d="M514 165C516.209 165 518 163.209 518 161C518 158.791 516.209 157 514 157C511.791 157 510 158.791 510 161C510 163.209 511.791 165 514 165Z" fill="#DBDBDB"/>
<path d="M545 165C547.209 165 549 163.209 549 161C549 158.791 547.209 157 545 157C542.791 157 541 158.791 541 161C541 163.209 542.791 165 545 165Z" fill="#DBDBDB"/>
<path d="M576 165C578.209 165 580 163.209 580 161C580 158.791 578.209 157 576 157C573.791 157 572 158.791 572 161C572 163.209 573.791 165 576 165Z" fill="#DBDBDB"/>
<path d="M607 165C609.209 165 611 163.209 611 161C611 158.791 609.209 157 607 157C604.791 157 603 158.791 603 161C603 163.209 604.791 165 607 165Z" fill="#DBDBDB"/>
<path d="M638 165C640.209 165 642 163.209 642 161C642 158.791 640.209 157 638 157C635.791 157 634 158.791 634 161C634 163.209 635.791 165 638 165Z" fill="#DBDBDB"/>
<path d="M332 191C332 193.209 330.209 195 328 195C325.791 195 324 193.209 324 191C324 188.791 325.791 187 328 187C330.209 187 332 188.791 332 191Z" fill="#DBDBDB"/>
<path d="M363 191C363 193.209 361.209 195 359 195C356.791 195 355 193.209 355 191C355 188.791 356.791 187 359 187C361.209 187 363 188.791 363 191Z" fill="#DBDBDB"/>
<path d="M394 191C394 193.209 392.209 195 390 195C387.791 195 386 193.209 386 191C386 188.791 387.791 187 390 187C392.209 187 394 188.791 394 191Z" fill="#DBDBDB"/>
<path d="M425 191C425 193.209 423.209 195 421 195C418.791 195 417 193.209 417 191C417 188.791 418.791 187 421 187C423.209 187 425 188.791 425 191Z" fill="#DBDBDB"/>
<path d="M456 191C456 193.209 454.209 195 452 195C449.791 195 448 193.209 448 191C448 188.791 449.791 187 452 187C454.209 187 456 188.791 456 191Z" fill="#DBDBDB"/>
<path d="M487 191C487 193.209 485.209 195 483 195C480.791 195 479 193.209 479 191C479 188.791 480.791 187 483 187C485.209 187 487 188.791 487 191Z" fill="#DBDBDB"/>
<path d="M518 191C518 193.209 516.209 195 514 195C511.791 195 510 193.209 510 191C510 188.791 511.791 187 514 187C516.209 187 518 188.791 518 191Z" fill="#DBDBDB"/>
<path d="M549 191C549 193.209 547.209 195 545 195C542.791 195 541 193.209 541 191C541 188.791 542.791 187 545 187C547.209 187 549 188.791 549 191Z" fill="#DBDBDB"/>
<path d="M580 191C580 193.209 578.209 195 576 195C573.791 195 572 193.209 572 191C572 188.791 573.791 187 576 187C578.209 187 580 188.791 580 191Z" fill="#DBDBDB"/>
<path d="M611 191C611 193.209 609.209 195 607 195C604.791 195 603 193.209 603 191C603 188.791 604.791 187 607 187C609.209 187 611 188.791 611 191Z" fill="#DBDBDB"/>
<path d="M642 191C642 193.209 640.209 195 638 195C635.791 195 634 193.209 634 191C634 188.791 635.791 187 638 187C640.209 187 642 188.791 642 191Z" fill="#DBDBDB"/>
<path d="M328 225C330.209 225 332 223.209 332 221C332 218.791 330.209 217 328 217C325.791 217 324 218.791 324 221C324 223.209 325.791 225 328 225Z" fill="#DBDBDB"/>
<path d="M359 225C361.209 225 363 223.209 363 221C363 218.791 361.209 217 359 217C356.791 217 355 218.791 355 221C355 223.209 356.791 225 359 225Z" fill="#DBDBDB"/>
<path d="M390 225C392.209 225 394 223.209 394 221C394 218.791 392.209 217 390 217C387.791 217 386 218.791 386 221C386 223.209 387.791 225 390 225Z" fill="#DBDBDB"/>
<path d="M421 225C423.209 225 425 223.209 425 221C425 218.791 423.209 217 421 217C418.791 217 417 218.791 417 221C417 223.209 418.791 225 421 225Z" fill="#DBDBDB"/>
<path d="M452 225C454.209 225 456 223.209 456 221C456 218.791 454.209 217 452 217C449.791 217 448 218.791 448 221C448 223.209 449.791 225 452 225Z" fill="#DBDBDB"/>
<path d="M483 225C485.209 225 487 223.209 487 221C487 218.791 485.209 217 483 217C480.791 217 479 218.791 479 221C479 223.209 480.791 225 483 225Z" fill="#DBDBDB"/>
<path d="M514 225C516.209 225 518 223.209 518 221C518 218.791 516.209 217 514 217C511.791 217 510 218.791 510 221C510 223.209 511.791 225 514 225Z" fill="#DBDBDB"/>
<path d="M545 225C547.209 225 549 223.209 549 221C549 218.791 547.209 217 545 217C542.791 217 541 218.791 541 221C541 223.209 542.791 225 545 225Z" fill="#DBDBDB"/>
<path d="M576 225C578.209 225 580 223.209 580 221C580 218.791 578.209 217 576 217C573.791 217 572 218.791 572 221C572 223.209 573.791 225 576 225Z" fill="#DBDBDB"/>
<path d="M607 225C609.209 225 611 223.209 611 221C611 218.791 609.209 217 607 217C604.791 217 603 218.791 603 221C603 223.209 604.791 225 607 225Z" fill="#DBDBDB"/>
<path d="M638 225C640.209 225 642 223.209 642 221C642 218.791 640.209 217 638 217C635.791 217 634 218.791 634 221C634 223.209 635.791 225 638 225Z" fill="#DBDBDB"/>
<path d="M332 251C332 253.209 330.209 255 328 255C325.791 255 324 253.209 324 251C324 248.791 325.791 247 328 247C330.209 247 332 248.791 332 251Z" fill="#DBDBDB"/>
<path d="M363 251C363 253.209 361.209 255 359 255C356.791 255 355 253.209 355 251C355 248.791 356.791 247 359 247C361.209 247 363 248.791 363 251Z" fill="#DBDBDB"/>
<path d="M394 251C394 253.209 392.209 255 390 255C387.791 255 386 253.209 386 251C386 248.791 387.791 247 390 247C392.209 247 394 248.791 394 251Z" fill="#DBDBDB"/>
<path d="M425 251C425 253.209 423.209 255 421 255C418.791 255 417 253.209 417 251C417 248.791 418.791 247 421 247C423.209 247 425 248.791 425 251Z" fill="#DBDBDB"/>
<path d="M456 251C456 253.209 454.209 255 452 255C449.791 255 448 253.209 448 251C448 248.791 449.791 247 452 247C454.209 247 456 248.791 456 251Z" fill="#DBDBDB"/>
<path d="M487 251C487 253.209 485.209 255 483 255C480.791 255 479 253.209 479 251C479 248.791 480.791 247 483 247C485.209 247 487 248.791 487 251Z" fill="#DBDBDB"/>
<path d="M518 251C518 253.209 516.209 255 514 255C511.791 255 510 253.209 510 251C510 248.791 511.791 247 514 247C516.209 247 518 248.791 518 251Z" fill="#DBDBDB"/>
<path d="M549 251C549 253.209 547.209 255 545 255C542.791 255 541 253.209 541 251C541 248.791 542.791 247 545 247C547.209 247 549 248.791 549 251Z" fill="#DBDBDB"/>
<path d="M580 251C580 253.209 578.209 255 576 255C573.791 255 572 253.209 572 251C572 248.791 573.791 247 576 247C578.209 247 580 248.791 580 251Z" fill="#DBDBDB"/>
<path d="M611 251C611 253.209 609.209 255 607 255C604.791 255 603 253.209 603 251C603 248.791 604.791 247 607 247C609.209 247 611 248.791 611 251Z" fill="#DBDBDB"/>
<path d="M642 251C642 253.209 640.209 255 638 255C635.791 255 634 253.209 634 251C634 248.791 635.791 247 638 247C640.209 247 642 248.791 642 251Z" fill="#DBDBDB"/>
<path d="M328 285C330.209 285 332 283.209 332 281C332 278.791 330.209 277 328 277C325.791 277 324 278.791 324 281C324 283.209 325.791 285 328 285Z" fill="#DBDBDB"/>
<path d="M359 285C361.209 285 363 283.209 363 281C363 278.791 361.209 277 359 277C356.791 277 355 278.791 355 281C355 283.209 356.791 285 359 285Z" fill="#DBDBDB"/>
<path d="M390 285C392.209 285 394 283.209 394 281C394 278.791 392.209 277 390 277C387.791 277 386 278.791 386 281C386 283.209 387.791 285 390 285Z" fill="#DBDBDB"/>
<path d="M421 285C423.209 285 425 283.209 425 281C425 278.791 423.209 277 421 277C418.791 277 417 278.791 417 281C417 283.209 418.791 285 421 285Z" fill="#DBDBDB"/>
<path d="M452 285C454.209 285 456 283.209 456 281C456 278.791 454.209 277 452 277C449.791 277 448 278.791 448 281C448 283.209 449.791 285 452 285Z" fill="#DBDBDB"/>
<path d="M483 285C485.209 285 487 283.209 487 281C487 278.791 485.209 277 483 277C480.791 277 479 278.791 479 281C479 283.209 480.791 285 483 285Z" fill="#DBDBDB"/>
<path d="M514 285C516.209 285 518 283.209 518 281C518 278.791 516.209 277 514 277C511.791 277 510 278.791 510 281C510 283.209 511.791 285 514 285Z" fill="#DBDBDB"/>
<path d="M545 285C547.209 285 549 283.209 549 281C549 278.791 547.209 277 545 277C542.791 277 541 278.791 541 281C541 283.209 542.791 285 545 285Z" fill="#DBDBDB"/>
<path d="M576 285C578.209 285 580 283.209 580 281C580 278.791 578.209 277 576 277C573.791 277 572 278.791 572 281C572 283.209 573.791 285 576 285Z" fill="#DBDBDB"/>
<path d="M607 285C609.209 285 611 283.209 611 281C611 278.791 609.209 277 607 277C604.791 277 603 278.791 603 281C603 283.209 604.791 285 607 285Z" fill="#DBDBDB"/>
<path d="M638 285C640.209 285 642 283.209 642 281C642 278.791 640.209 277 638 277C635.791 277 634 278.791 634 281C634 283.209 635.791 285 638 285Z" fill="#DBDBDB"/>
<path d="M332 311C332 313.209 330.209 315 328 315C325.791 315 324 313.209 324 311C324 308.791 325.791 307 328 307C330.209 307 332 308.791 332 311Z" fill="#DBDBDB"/>
<path d="M363 311C363 313.209 361.209 315 359 315C356.791 315 355 313.209 355 311C355 308.791 356.791 307 359 307C361.209 307 363 308.791 363 311Z" fill="#DBDBDB"/>
<path d="M394 311C394 313.209 392.209 315 390 315C387.791 315 386 313.209 386 311C386 308.791 387.791 307 390 307C392.209 307 394 308.791 394 311Z" fill="#DBDBDB"/>
<path d="M425 311C425 313.209 423.209 315 421 315C418.791 315 417 313.209 417 311C417 308.791 418.791 307 421 307C423.209 307 425 308.791 425 311Z" fill="#DBDBDB"/>
<path d="M456 311C456 313.209 454.209 315 452 315C449.791 315 448 313.209 448 311C448 308.791 449.791 307 452 307C454.209 307 456 308.791 456 311Z" fill="#DBDBDB"/>
<path d="M487 311C487 313.209 485.209 315 483 315C480.791 315 479 313.209 479 311C479 308.791 480.791 307 483 307C485.209 307 487 308.791 487 311Z" fill="#DBDBDB"/>
<path d="M518 311C518 313.209 516.209 315 514 315C511.791 315 510 313.209 510 311C510 308.791 511.791 307 514 307C516.209 307 518 308.791 518 311Z" fill="#DBDBDB"/>
<path d="M549 311C549 313.209 547.209 315 545 315C542.791 315 541 313.209 541 311C541 308.791 542.791 307 545 307C547.209 307 549 308.791 549 311Z" fill="#DBDBDB"/>
<path d="M580 311C580 313.209 578.209 315 576 315C573.791 315 572 313.209 572 311C572 308.791 573.791 307 576 307C578.209 307 580 308.791 580 311Z" fill="#DBDBDB"/>
<path d="M611 311C611 313.209 609.209 315 607 315C604.791 315 603 313.209 603 311C603 308.791 604.791 307 607 307C609.209 307 611 308.791 611 311Z" fill="#DBDBDB"/>
<path d="M642 311C642 313.209 640.209 315 638 315C635.791 315 634 313.209 634 311C634 308.791 635.791 307 638 307C640.209 307 642 308.791 642 311Z" fill="#DBDBDB"/>
<path d="M328 345C330.209 345 332 343.209 332 341C332 338.791 330.209 337 328 337C325.791 337 324 338.791 324 341C324 343.209 325.791 345 328 345Z" fill="#DBDBDB"/>
<path d="M359 345C361.209 345 363 343.209 363 341C363 338.791 361.209 337 359 337C356.791 337 355 338.791 355 341C355 343.209 356.791 345 359 345Z" fill="#DBDBDB"/>
<path d="M390 345C392.209 345 394 343.209 394 341C394 338.791 392.209 337 390 337C387.791 337 386 338.791 386 341C386 343.209 387.791 345 390 345Z" fill="#DBDBDB"/>
<path d="M421 345C423.209 345 425 343.209 425 341C425 338.791 423.209 337 421 337C418.791 337 417 338.791 417 341C417 343.209 418.791 345 421 345Z" fill="#DBDBDB"/>
<path d="M452 345C454.209 345 456 343.209 456 341C456 338.791 454.209 337 452 337C449.791 337 448 338.791 448 341C448 343.209 449.791 345 452 345Z" fill="#DBDBDB"/>
<path d="M483 345C485.209 345 487 343.209 487 341C487 338.791 485.209 337 483 337C480.791 337 479 338.791 479 341C479 343.209 480.791 345 483 345Z" fill="#DBDBDB"/>
<path d="M514 345C516.209 345 518 343.209 518 341C518 338.791 516.209 337 514 337C511.791 337 510 338.791 510 341C510 343.209 511.791 345 514 345Z" fill="#DBDBDB"/>
<path d="M545 345C547.209 345 549 343.209 549 341C549 338.791 547.209 337 545 337C542.791 337 541 338.791 541 341C541 343.209 542.791 345 545 345Z" fill="#DBDBDB"/>
<path d="M576 345C578.209 345 580 343.209 580 341C580 338.791 578.209 337 576 337C573.791 337 572 338.791 572 341C572 343.209 573.791 345 576 345Z" fill="#DBDBDB"/>
<path d="M607 345C609.209 345 611 343.209 611 341C611 338.791 609.209 337 607 337C604.791 337 603 338.791 603 341C603 343.209 604.791 345 607 345Z" fill="#DBDBDB"/>
<path d="M638 345C640.209 345 642 343.209 642 341C642 338.791 640.209 337 638 337C635.791 337 634 338.791 634 341C634 343.209 635.791 345 638 345Z" fill="#DBDBDB"/>
<path d="M332 371C332 373.209 330.209 375 328 375C325.791 375 324 373.209 324 371C324 368.791 325.791 367 328 367C330.209 367 332 368.791 332 371Z" fill="#DBDBDB"/>
<path d="M363 371C363 373.209 361.209 375 359 375C356.791 375 355 373.209 355 371C355 368.791 356.791 367 359 367C361.209 367 363 368.791 363 371Z" fill="#DBDBDB"/>
<path d="M394 371C394 373.209 392.209 375 390 375C387.791 375 386 373.209 386 371C386 368.791 387.791 367 390 367C392.209 367 394 368.791 394 371Z" fill="#DBDBDB"/>
<path d="M425 371C425 373.209 423.209 375 421 375C418.791 375 417 373.209 417 371C417 368.791 418.791 367 421 367C423.209 367 425 368.791 425 371Z" fill="#DBDBDB"/>
<path d="M456 371C456 373.209 454.209 375 452 375C449.791 375 448 373.209 448 371C448 368.791 449.791 367 452 367C454.209 367 456 368.791 456 371Z" fill="#DBDBDB"/>
<path d="M487 371C487 373.209 485.209 375 483 375C480.791 375 479 373.209 479 371C479 368.791 480.791 367 483 367C485.209 367 487 368.791 487 371Z" fill="#DBDBDB"/>
<path d="M518 371C518 373.209 516.209 375 514 375C511.791 375 510 373.209 510 371C510 368.791 511.791 367 514 367C516.209 367 518 368.791 518 371Z" fill="#DBDBDB"/>
<path d="M549 371C549 373.209 547.209 375 545 375C542.791 375 541 373.209 541 371C541 368.791 542.791 367 545 367C547.209 367 549 368.791 549 371Z" fill="#DBDBDB"/>
<path d="M580 371C580 373.209 578.209 375 576 375C573.791 375 572 373.209 572 371C572 368.791 573.791 367 576 367C578.209 367 580 368.791 580 371Z" fill="#DBDBDB"/>
<path d="M611 371C611 373.209 609.209 375 607 375C604.791 375 603 373.209 603 371C603 368.791 604.791 367 607 367C609.209 367 611 368.791 611 371Z" fill="#DBDBDB"/>
<path d="M642 371C642 373.209 640.209 375 638 375C635.791 375 634 373.209 634 371C634 368.791 635.791 367 638 367C640.209 367 642 368.791 642 371Z" fill="#DBDBDB"/>
<path d="M328 405C330.209 405 332 403.209 332 401C332 398.791 330.209 397 328 397C325.791 397 324 398.791 324 401C324 403.209 325.791 405 328 405Z" fill="#DBDBDB"/>
<path d="M359 405C361.209 405 363 403.209 363 401C363 398.791 361.209 397 359 397C356.791 397 355 398.791 355 401C355 403.209 356.791 405 359 405Z" fill="#DBDBDB"/>
<path d="M390 405C392.209 405 394 403.209 394 401C394 398.791 392.209 397 390 397C387.791 397 386 398.791 386 401C386 403.209 387.791 405 390 405Z" fill="#DBDBDB"/>
<path d="M421 405C423.209 405 425 403.209 425 401C425 398.791 423.209 397 421 397C418.791 397 417 398.791 417 401C417 403.209 418.791 405 421 405Z" fill="#DBDBDB"/>
<path d="M452 405C454.209 405 456 403.209 456 401C456 398.791 454.209 397 452 397C449.791 397 448 398.791 448 401C448 403.209 449.791 405 452 405Z" fill="#DBDBDB"/>
<path d="M483 405C485.209 405 487 403.209 487 401C487 398.791 485.209 397 483 397C480.791 397 479 398.791 479 401C479 403.209 480.791 405 483 405Z" fill="#DBDBDB"/>
<path d="M514 405C516.209 405 518 403.209 518 401C518 398.791 516.209 397 514 397C511.791 397 510 398.791 510 401C510 403.209 511.791 405 514 405Z" fill="#DBDBDB"/>
<path d="M545 405C547.209 405 549 403.209 549 401C549 398.791 547.209 397 545 397C542.791 397 541 398.791 541 401C541 403.209 542.791 405 545 405Z" fill="#DBDBDB"/>
<path d="M576 405C578.209 405 580 403.209 580 401C580 398.791 578.209 397 576 397C573.791 397 572 398.791 572 401C572 403.209 573.791 405 576 405Z" fill="#DBDBDB"/>
<path d="M607 405C609.209 405 611 403.209 611 401C611 398.791 609.209 397 607 397C604.791 397 603 398.791 603 401C603 403.209 604.791 405 607 405Z" fill="#DBDBDB"/>
<path d="M638 405C640.209 405 642 403.209 642 401C642 398.791 640.209 397 638 397C635.791 397 634 398.791 634 401C634 403.209 635.791 405 638 405Z" fill="#DBDBDB"/>
<path d="M332 431C332 433.209 330.209 435 328 435C325.791 435 324 433.209 324 431C324 428.791 325.791 427 328 427C330.209 427 332 428.791 332 431Z" fill="#DBDBDB"/>
<path d="M363 431C363 433.209 361.209 435 359 435C356.791 435 355 433.209 355 431C355 428.791 356.791 427 359 427C361.209 427 363 428.791 363 431Z" fill="#DBDBDB"/>
<path d="M394 431C394 433.209 392.209 435 390 435C387.791 435 386 433.209 386 431C386 428.791 387.791 427 390 427C392.209 427 394 428.791 394 431Z" fill="#DBDBDB"/>
<path d="M425 431C425 433.209 423.209 435 421 435C418.791 435 417 433.209 417 431C417 428.791 418.791 427 421 427C423.209 427 425 428.791 425 431Z" fill="#DBDBDB"/>
<path d="M456 431C456 433.209 454.209 435 452 435C449.791 435 448 433.209 448 431C448 428.791 449.791 427 452 427C454.209 427 456 428.791 456 431Z" fill="#DBDBDB"/>
<path d="M487 431C487 433.209 485.209 435 483 435C480.791 435 479 433.209 479 431C479 428.791 480.791 427 483 427C485.209 427 487 428.791 487 431Z" fill="#DBDBDB"/>
<path d="M518 431C518 433.209 516.209 435 514 435C511.791 435 510 433.209 510 431C510 428.791 511.791 427 514 427C516.209 427 518 428.791 518 431Z" fill="#DBDBDB"/>
<path d="M549 431C549 433.209 547.209 435 545 435C542.791 435 541 433.209 541 431C541 428.791 542.791 427 545 427C547.209 427 549 428.791 549 431Z" fill="#DBDBDB"/>
<path d="M580 431C580 433.209 578.209 435 576 435C573.791 435 572 433.209 572 431C572 428.791 573.791 427 576 427C578.209 427 580 428.791 580 431Z" fill="#DBDBDB"/>
<path d="M611 431C611 433.209 609.209 435 607 435C604.791 435 603 433.209 603 431C603 428.791 604.791 427 607 427C609.209 427 611 428.791 611 431Z" fill="#DBDBDB"/>
<path d="M642 431C642 433.209 640.209 435 638 435C635.791 435 634 433.209 634 431C634 428.791 635.791 427 638 427C640.209 427 642 428.791 642 431Z" fill="#DBDBDB"/>
<path d="M328 465C330.209 465 332 463.209 332 461C332 458.791 330.209 457 328 457C325.791 457 324 458.791 324 461C324 463.209 325.791 465 328 465Z" fill="#DBDBDB"/>
<path d="M359 465C361.209 465 363 463.209 363 461C363 458.791 361.209 457 359 457C356.791 457 355 458.791 355 461C355 463.209 356.791 465 359 465Z" fill="#DBDBDB"/>
<path d="M390 465C392.209 465 394 463.209 394 461C394 458.791 392.209 457 390 457C387.791 457 386 458.791 386 461C386 463.209 387.791 465 390 465Z" fill="#DBDBDB"/>
<path d="M421 465C423.209 465 425 463.209 425 461C425 458.791 423.209 457 421 457C418.791 457 417 458.791 417 461C417 463.209 418.791 465 421 465Z" fill="#DBDBDB"/>
<path d="M452 465C454.209 465 456 463.209 456 461C456 458.791 454.209 457 452 457C449.791 457 448 458.791 448 461C448 463.209 449.791 465 452 465Z" fill="#DBDBDB"/>
<path d="M483 465C485.209 465 487 463.209 487 461C487 458.791 485.209 457 483 457C480.791 457 479 458.791 479 461C479 463.209 480.791 465 483 465Z" fill="#DBDBDB"/>
<path d="M514 465C516.209 465 518 463.209 518 461C518 458.791 516.209 457 514 457C511.791 457 510 458.791 510 461C510 463.209 511.791 465 514 465Z" fill="#DBDBDB"/>
<path d="M545 465C547.209 465 549 463.209 549 461C549 458.791 547.209 457 545 457C542.791 457 541 458.791 541 461C541 463.209 542.791 465 545 465Z" fill="#DBDBDB"/>
<path d="M576 465C578.209 465 580 463.209 580 461C580 458.791 578.209 457 576 457C573.791 457 572 458.791 572 461C572 463.209 573.791 465 576 465Z" fill="#DBDBDB"/>
<path d="M607 465C609.209 465 611 463.209 611 461C611 458.791 609.209 457 607 457C604.791 457 603 458.791 603 461C603 463.209 604.791 465 607 465Z" fill="#DBDBDB"/>
<path d="M638 465C640.209 465 642 463.209 642 461C642 458.791 640.209 457 638 457C635.791 457 634 458.791 634 461C634 463.209 635.791 465 638 465Z" fill="#DBDBDB"/>
<path d="M332 491C332 493.209 330.209 495 328 495C325.791 495 324 493.209 324 491C324 488.791 325.791 487 328 487C330.209 487 332 488.791 332 491Z" fill="#DBDBDB"/>
<path d="M363 491C363 493.209 361.209 495 359 495C356.791 495 355 493.209 355 491C355 488.791 356.791 487 359 487C361.209 487 363 488.791 363 491Z" fill="#DBDBDB"/>
<path d="M394 491C394 493.209 392.209 495 390 495C387.791 495 386 493.209 386 491C386 488.791 387.791 487 390 487C392.209 487 394 488.791 394 491Z" fill="#DBDBDB"/>
<path d="M425 491C425 493.209 423.209 495 421 495C418.791 495 417 493.209 417 491C417 488.791 418.791 487 421 487C423.209 487 425 488.791 425 491Z" fill="#DBDBDB"/>
<path d="M456 491C456 493.209 454.209 495 452 495C449.791 495 448 493.209 448 491C448 488.791 449.791 487 452 487C454.209 487 456 488.791 456 491Z" fill="#DBDBDB"/>
<path d="M487 491C487 493.209 485.209 495 483 495C480.791 495 479 493.209 479 491C479 488.791 480.791 487 483 487C485.209 487 487 488.791 487 491Z" fill="#DBDBDB"/>
<path d="M518 491C518 493.209 516.209 495 514 495C511.791 495 510 493.209 510 491C510 488.791 511.791 487 514 487C516.209 487 518 488.791 518 491Z" fill="#DBDBDB"/>
<path d="M549 491C549 493.209 547.209 495 545 495C542.791 495 541 493.209 541 491C541 488.791 542.791 487 545 487C547.209 487 549 488.791 549 491Z" fill="#DBDBDB"/>
<path d="M580 491C580 493.209 578.209 495 576 495C573.791 495 572 493.209 572 491C572 488.791 573.791 487 576 487C578.209 487 580 488.791 580 491Z" fill="#DBDBDB"/>
<path d="M611 491C611 493.209 609.209 495 607 495C604.791 495 603 493.209 603 491C603 488.791 604.791 487 607 487C609.209 487 611 488.791 611 491Z" fill="#DBDBDB"/>
<path d="M642 491C642 493.209 640.209 495 638 495C635.791 495 634 493.209 634 491C634 488.791 635.791 487 638 487C640.209 487 642 488.791 642 491Z" fill="#DBDBDB"/>
<mask id="mask0_1_1786" style="mask-type:alpha" maskUnits="userSpaceOnUse" x="0" y="0" width="582" height="657">
<path d="M0 221C0 98.9451 98.9451 0 221 0H581.192V657H0V221Z" fill="black"/>
</mask>
<g mask="url(#mask0_1_1786)">
<rect x="-5" y="-41" width="591" height="740" fill="#333333"/>
</g>
<mask id="mask1_1_1786" style="mask-type:alpha" maskUnits="userSpaceOnUse" x="261" y="482" width="387" height="287">
<path d="M261 482H531C595.617 482 648 534.383 648 599V769H261V482Z" fill="black"/>
</mask>
<g mask="url(#mask1_1_1786)">
<rect x="159" y="256" width="591" height="740" fill="#565656"/>
</g>
<path d="M299 677H252C194.562 677 148 723.562 148 781V833H299V677Z" fill="#FFAA04"/>
</svg>
